<svg width="71" height="63" viewBox="0 0 71 63" fill="none" xmlns="http://www.w3.org/2000/svg">
<path d="M23.8314 61.8529H14.9788C13.8335 61.8529 12.904 60.9234 12.904 59.7781C12.904 58.6328 13.8335 57.7032 14.9788 57.7032H23.8314C24.9767 57.7032 25.9062 58.6328 25.9062 59.7781C25.9062 60.9234 24.9781 61.8529 23.8314 61.8529Z" fill="white"/>
<path d="M49.7698 20.0026C38.1355 20.0026 28.6715 29.4679 28.6715 41.1008V41.9017C28.6715 53.5359 38.1369 62.9999 49.7698 62.9999C61.4026 62.9999 70.868 53.5345 70.868 41.9017V41.1008C70.868 29.4679 61.4026 20.0026 49.7698 20.0026Z" fill="#F4901A"/>
<path d="M24.808 48.5746H10.3741C4.65315 48.5746 0 43.9214 0 38.2004V10.3743C0 4.65327 4.65315 0.00012207 10.3741 0.00012207H46.5826C52.3036 0.00012207 56.9568 4.65327 56.9568 10.3743V15.8795C56.9568 17.0248 56.0272 17.9543 54.8819 17.9543C53.7366 17.9543 52.8071 17.0248 52.8071 15.8795V10.3743C52.8071 6.94249 50.0144 4.14977 46.5826 4.14977H10.3741C6.94238 4.14977 4.14965 6.94249 4.14965 10.3743V38.2004C4.14965 41.6322 6.94238 44.4249 10.3741 44.4249H24.808C25.9533 44.4249 26.8828 45.3544 26.8828 46.4997C26.8828 47.645 25.9547 48.5746 24.808 48.5746Z" fill="white"/>
<path d="M24.808 37.4281H2.07483C0.929522 37.4281 0 36.4986 0 35.3533C0 34.208 0.929522 33.2784 2.07483 33.2784H24.808C25.9533 33.2784 26.8828 34.208 26.8828 35.3533C26.8828 36.4986 25.9547 37.4281 24.808 37.4281Z" fill="white"/>
<path d="M21.6181 61.8532C20.4728 61.8532 19.5433 60.9237 19.5433 59.7784V46.4995C19.5433 45.3542 20.4728 44.4247 21.6181 44.4247C22.7634 44.4247 23.693 45.3542 23.693 46.4995V59.7784C23.693 60.9251 22.7648 61.8532 21.6181 61.8532Z" fill="white"/>
<path d="M54.3344 56.4587H45.2065C42.3073 56.4587 39.9475 54.1004 39.9475 51.1998V31.8043C39.9475 28.9051 42.3059 26.5453 45.2065 26.5453H54.3344C57.2336 26.5453 59.5934 28.9037 59.5934 31.8043V51.2011C59.592 54.1004 57.2336 56.4587 54.3344 56.4587ZM45.2052 29.1748C43.7555 29.1748 42.5757 30.3547 42.5757 31.8043V51.2011C42.5757 52.6508 43.7555 53.8306 45.2052 53.8306H54.333C55.7826 53.8306 56.9625 52.6508 56.9625 51.2011V31.8043C56.9625 30.3547 55.7826 29.1748 54.333 29.1748H45.2052Z" fill="white"/>
<path d="M51.4242 34.3432H48.4572C47.731 34.3432 47.1431 33.754 47.1431 33.0291C47.1431 32.3043 47.7323 31.7151 48.4572 31.7151H51.4242C52.1504 31.7151 52.7382 32.3043 52.7382 33.0291C52.7382 33.754 52.1504 34.3432 51.4242 34.3432Z" fill="white"/>
<path d="M58.278 49.9941H41.2616C40.5354 49.9941 39.9476 49.4048 39.9476 48.68C39.9476 47.9552 40.5368 47.366 41.2616 47.366H58.278C59.0042 47.366 59.592 47.9552 59.592 48.68C59.592 49.4048 59.0042 49.9941 58.278 49.9941Z" fill="white"/>
</svg>
