<svg width="462" height="63" viewBox="0 0 462 63" fill="none" xmlns="http://www.w3.org/2000/svg">
<path d="M433.759 63H409.414C404.223 63 400 58.7767 400 53.5856V9.41443C400 4.22329 404.223 0 409.414 0H433.759C437.551 0 440.956 2.25619 442.433 5.74921C442.839 6.70825 442.39 7.81435 441.431 8.22034C440.472 8.62633 439.366 8.17761 438.96 7.21857C438.075 5.12452 436.033 3.7708 433.759 3.7708H409.414C406.302 3.7708 403.771 6.30226 403.771 9.41443V53.5856C403.771 56.6977 406.302 59.2292 409.414 59.2292H433.759C436.033 59.2292 438.074 57.8755 438.96 55.7814C439.366 54.8224 440.472 54.3737 441.431 54.7797C442.39 55.1856 442.839 56.2917 442.433 57.2508C440.956 60.7438 437.551 63 433.759 63Z" fill="white"/>
<path d="M440.942 10.9907C429.843 10.9907 420.815 20.0193 420.815 31.118V31.8822C420.815 42.9809 429.843 52.0095 440.942 52.0095C452.041 52.0095 461.069 42.9809 461.069 31.8822V31.118C461.069 20.0205 452.041 10.9907 440.942 10.9907Z" fill="#F4901A"/>
<path d="M421.587 54.7305C420.2 54.7305 419.076 53.6068 419.076 52.2204C419.076 50.834 420.2 49.7103 421.587 49.7103C422.973 49.7103 424.097 50.834 424.097 52.2204C424.097 53.6068 422.973 54.7305 421.587 54.7305Z" fill="white"/>
<path d="M434.465 37.5082C434.18 37.5082 433.893 37.4114 433.658 37.2141L429.863 34.0328C429.114 33.3968 428.688 32.4754 428.688 31.5013C428.688 30.5272 429.114 29.6059 429.857 28.9749L433.657 25.7885C434.188 25.3423 434.982 25.4127 435.428 25.9444C435.874 26.4761 435.804 27.2692 435.272 27.7154L431.479 30.8967C431.238 31.1003 431.202 31.363 431.202 31.5026C431.202 31.6421 431.238 31.9048 431.485 32.1134L435.272 35.2897C435.804 35.7359 435.874 36.529 435.428 37.0607C435.18 37.3548 434.823 37.5082 434.465 37.5082Z" fill="white"/>
<path d="M447.707 37.5082C447.352 37.5082 447 37.3587 446.752 37.0683C446.3 36.5404 446.362 35.7473 446.89 35.296L450.607 32.1147C450.855 31.9036 450.892 31.6396 450.892 31.5014C450.892 31.3631 450.855 31.0991 450.609 30.8905L446.889 27.7067C446.361 27.2554 446.299 26.4623 446.75 25.9344C447.202 25.4065 447.995 25.3449 448.523 25.7961L452.239 28.9774C452.978 29.6059 453.405 30.526 453.405 31.5014C453.405 32.4767 452.978 33.3968 452.236 34.0278L448.524 37.2053C448.288 37.4089 447.996 37.5082 447.707 37.5082Z" fill="white"/>
<path d="M438.487 40.0338C438.354 40.0338 438.218 40.0124 438.085 39.9671C437.428 39.7447 437.074 39.032 437.296 38.3746L442.207 23.8231C442.429 23.1657 443.142 22.8113 443.799 23.0337C444.456 23.2562 444.81 23.9689 444.588 24.6263L439.678 39.1778C439.5 39.7032 439.011 40.0338 438.487 40.0338Z" fill="white"/>
<path d="M425.879 12.695H417.295C416.255 12.695 415.41 11.8503 415.41 10.8096C415.41 9.76885 416.255 8.92419 417.295 8.92419H425.879C426.92 8.92419 427.764 9.76885 427.764 10.8096C427.764 11.8503 426.92 12.695 425.879 12.695Z" fill="white"/>
<path d="M23.8314 61.8529H14.9788C13.8335 61.8529 12.904 60.9234 12.904 59.7781C12.904 58.6328 13.8335 57.7032 14.9788 57.7032H23.8314C24.9767 57.7032 25.9062 58.6328 25.9062 59.7781C25.9062 60.9234 24.9781 61.8529 23.8314 61.8529Z" fill="white"/>
<path d="M49.7698 20.0026C38.1355 20.0026 28.6715 29.4679 28.6715 41.1008V41.9017C28.6715 53.5359 38.1369 62.9999 49.7698 62.9999C61.4026 62.9999 70.868 53.5345 70.868 41.9017V41.1008C70.868 29.4679 61.4026 20.0026 49.7698 20.0026Z" fill="#F4901A"/>
<path d="M24.808 48.5746H10.3741C4.65315 48.5746 0 43.9214 0 38.2004V10.3743C0 4.65327 4.65315 0.00012207 10.3741 0.00012207H46.5826C52.3036 0.00012207 56.9568 4.65327 56.9568 10.3743V15.8795C56.9568 17.0248 56.0272 17.9543 54.8819 17.9543C53.7366 17.9543 52.8071 17.0248 52.8071 15.8795V10.3743C52.8071 6.94249 50.0144 4.14977 46.5826 4.14977H10.3741C6.94238 4.14977 4.14965 6.94249 4.14965 10.3743V38.2004C4.14965 41.6322 6.94238 44.4249 10.3741 44.4249H24.808C25.9533 44.4249 26.8828 45.3544 26.8828 46.4997C26.8828 47.645 25.9547 48.5746 24.808 48.5746Z" fill="white"/>
<path d="M24.808 37.4281H2.07483C0.929522 37.4281 0 36.4986 0 35.3533C0 34.208 0.929522 33.2784 2.07483 33.2784H24.808C25.9533 33.2784 26.8828 34.208 26.8828 35.3533C26.8828 36.4986 25.9547 37.4281 24.808 37.4281Z" fill="white"/>
<path d="M21.6181 61.8532C20.4728 61.8532 19.5433 60.9237 19.5433 59.7784V46.4995C19.5433 45.3542 20.4728 44.4247 21.6181 44.4247C22.7634 44.4247 23.693 45.3542 23.693 46.4995V59.7784C23.693 60.9251 22.7648 61.8532 21.6181 61.8532Z" fill="white"/>
<path d="M54.3344 56.4587H45.2065C42.3073 56.4587 39.9475 54.1004 39.9475 51.1998V31.8043C39.9475 28.9051 42.3059 26.5453 45.2065 26.5453H54.3344C57.2336 26.5453 59.5934 28.9037 59.5934 31.8043V51.2011C59.592 54.1004 57.2336 56.4587 54.3344 56.4587ZM45.2052 29.1748C43.7555 29.1748 42.5757 30.3547 42.5757 31.8043V51.2011C42.5757 52.6508 43.7555 53.8306 45.2052 53.8306H54.333C55.7826 53.8306 56.9625 52.6508 56.9625 51.2011V31.8043C56.9625 30.3547 55.7826 29.1748 54.333 29.1748H45.2052Z" fill="white"/>
<path d="M51.4242 34.3432H48.4572C47.731 34.3432 47.1431 33.754 47.1431 33.0291C47.1431 32.3043 47.7323 31.7151 48.4572 31.7151H51.4242C52.1504 31.7151 52.7382 32.3043 52.7382 33.0291C52.7382 33.754 52.1504 34.3432 51.4242 34.3432Z" fill="white"/>
<path d="M58.278 49.9941H41.2616C40.5354 49.9941 39.9476 49.4048 39.9476 48.68C39.9476 47.9552 40.5368 47.366 41.2616 47.366H58.278C59.0042 47.366 59.592 47.9552 59.592 48.68C59.592 49.4048 59.0042 49.9941 58.278 49.9941Z" fill="white"/>
</svg>
