<svg width="57" height="63" viewBox="0 0 57 63" fill="none" xmlns="http://www.w3.org/2000/svg">
<path d="M38.9597 12.5448H30.4785C29.4502 12.5448 28.6156 11.7102 28.6156 10.6819C28.6156 9.65355 29.4502 8.81897 30.4785 8.81897H38.9597C39.9881 8.81897 40.8226 9.65355 40.8226 10.6819C40.8226 11.7102 39.9881 12.5448 38.9597 12.5448Z" fill="white"/>
<path d="M46.7467 62.2486H37.1999C36.1716 62.2486 35.337 61.414 35.337 60.3857C35.337 59.3574 36.1716 58.5228 37.1999 58.5228H46.7467C49.8217 58.5228 52.323 56.0215 52.323 52.9465V9.30214C52.323 6.2271 49.8217 3.72583 46.7467 3.72583H22.6928C19.6177 3.72583 17.1165 6.2271 17.1165 9.30214V17.9423C17.1165 18.9707 16.2819 19.8052 15.2535 19.8052C14.2252 19.8052 13.3906 18.9707 13.3906 17.9423V9.30214C13.3906 4.17292 17.5635 0 22.6928 0H46.7467C51.8759 0 56.0488 4.17292 56.0488 9.30214V52.9465C56.0488 58.0757 51.8759 62.2486 46.7467 62.2486Z" fill="white"/>
<path d="M39.7744 43.1128V42.3577C39.7744 31.3926 30.8536 22.4705 19.8872 22.4705C8.92087 22.4705 0 31.3926 0 42.3577V43.1128C0 54.0779 8.92087 63 19.8872 63C30.8536 63 39.7744 54.0791 39.7744 43.1128Z" fill="#F4901A"/>
<path d="M25.9379 55.254C25.9354 55.254 25.9342 55.254 17.2791 55.2317C16.1551 55.2292 15.0982 54.7895 14.3034 53.9947L7.97693 47.6682C6.74865 46.44 6.39594 44.6131 7.08149 43.0159L10.2447 35.6363C10.4558 35.142 10.7576 34.6974 11.1402 34.3149C12.3126 33.1425 14.0711 32.7637 15.6223 33.3511L22.2555 35.8623L25.9031 32.2148C26.7004 31.4174 27.7611 30.9778 28.89 30.9778C30.0177 30.9778 31.0795 31.4174 31.8769 32.2148C33.5237 33.8616 33.5237 36.5417 31.8769 38.1885L23.2578 46.8076H25.9379C28.2665 46.8076 30.1617 48.7028 30.1617 51.0314C30.1617 53.3601 28.2678 55.254 25.9379 55.254ZM14.1308 35.5605C13.6762 35.5605 13.2303 35.7381 12.8975 36.0697C12.7385 36.2287 12.6156 36.4113 12.5286 36.6137L9.36542 43.9946C9.0835 44.6528 9.22881 45.4054 9.73428 45.9121L16.0607 52.2386C16.3886 52.5665 16.8233 52.7465 17.2865 52.7478C17.2865 52.7478 25.9044 52.7701 25.9416 52.7701C26.8979 52.7701 27.6791 51.989 27.6791 51.0302C27.6791 50.0702 26.8979 49.2902 25.9391 49.2902H20.261C19.7592 49.2902 19.3059 48.9872 19.1134 48.5239C18.9209 48.0595 19.0277 47.5254 19.3829 47.1702L30.122 36.4311C30.8001 35.753 30.8001 34.649 30.122 33.9709C29.7929 33.6417 29.357 33.4617 28.8912 33.4617C28.4267 33.4617 27.9896 33.643 27.6605 33.9709L23.4453 38.186C23.1001 38.5313 22.5847 38.6418 22.1276 38.4692L14.7443 35.6748C14.5456 35.5978 14.3369 35.5605 14.1308 35.5605Z" fill="white"/>
</svg>
