<svg width="32" height="30" viewBox="0 0 32 30" fill="none" xmlns="http://www.w3.org/2000/svg">
<path d="M14.6663 29.6458C6.57987 29.6458 0 23.0662 0 14.9798C0 6.89335 6.57987 0.313477 14.6663 0.313477C17.4767 0.313477 20.2127 1.11619 22.5779 2.63201C23.0432 2.93083 23.178 3.54946 22.8806 4.01331C22.5821 4.47741 21.962 4.61339 21.4993 4.31482C19.4554 3.00675 17.0942 2.31341 14.6663 2.31341C7.68238 2.31341 1.99994 7.99585 1.99994 14.9798C1.99994 21.9634 7.68238 27.6459 14.6663 27.6459C21.65 27.6459 27.3324 21.9634 27.3324 14.9798C27.3324 14.5623 27.3124 14.149 27.2738 13.7425C27.2206 13.1932 27.6232 12.7037 28.1737 12.6517C28.7191 12.5812 29.211 13.0011 29.2645 13.5504C29.3096 14.0211 29.3323 14.4971 29.3323 14.9798C29.3323 23.0662 22.7527 29.6458 14.6663 29.6458Z" fill="#263238"/>
<path d="M16.3327 18.3129C16.0769 18.3129 15.8208 18.2155 15.6262 18.0197L9.62639 12.0199C9.23578 11.629 9.23578 10.9957 9.62639 10.6051C10.017 10.2145 10.6503 10.2145 11.0409 10.6051L16.3342 15.8984L30.2922 1.94012C30.6831 1.5495 31.3164 1.5495 31.707 1.94012C32.0976 2.33073 32.0976 2.96401 31.707 3.35462L17.0407 18.0209C16.8447 18.2155 16.5888 18.3129 16.3327 18.3129Z" fill="#263238"/>
</svg>
