<svg width="62" height="63" viewBox="0 0 62 63" fill="none" xmlns="http://www.w3.org/2000/svg">
<path d="M33.7587 63H9.41443C4.22329 63 0 58.7767 0 53.5856V9.41443C0 4.22329 4.22329 0 9.41443 0H33.7587C37.5509 0 40.9559 2.25619 42.4328 5.74921C42.8388 6.70825 42.3901 7.81435 41.431 8.22034C40.472 8.62633 39.3659 8.17761 38.9599 7.21857C38.075 5.12452 36.0325 3.7708 33.7587 3.7708H9.41443C6.30226 3.7708 3.7708 6.30226 3.7708 9.41443V53.5856C3.7708 56.6977 6.30226 59.2292 9.41443 59.2292H33.7587C36.0325 59.2292 38.0738 57.8755 38.9599 55.7814C39.3659 54.8224 40.472 54.3737 41.431 54.7797C42.3901 55.1856 42.8388 56.2917 42.4328 57.2508C40.9559 60.7438 37.5509 63 33.7587 63Z" fill="white"/>
<path d="M40.9421 10.9907C29.8434 10.9907 20.8148 20.0193 20.8148 31.118V31.8822C20.8148 42.9809 29.8434 52.0095 40.9421 52.0095C52.0408 52.0095 61.0694 42.9809 61.0694 31.8822V31.118C61.0694 20.0205 52.0408 10.9907 40.9421 10.9907Z" fill="#F4901A"/>
<path d="M21.5866 54.7305C20.2002 54.7305 19.0765 53.6068 19.0765 52.2204C19.0765 50.834 20.2002 49.7103 21.5866 49.7103C22.973 49.7103 24.0967 50.834 24.0967 52.2204C24.0967 53.6068 22.973 54.7305 21.5866 54.7305Z" fill="white"/>
<path d="M34.465 37.5082C34.1797 37.5082 33.8931 37.4114 33.6581 37.2141L29.8634 34.0328C29.1142 33.3968 28.6881 32.4754 28.6881 31.5013C28.6881 30.5272 29.1142 29.6059 29.8571 28.9749L33.6568 25.7885C34.1885 25.3423 34.9816 25.4127 35.4278 25.9444C35.874 26.4761 35.8036 27.2692 35.272 27.7154L31.4785 30.8967C31.2385 31.1003 31.202 31.363 31.202 31.5026C31.202 31.6421 31.2385 31.9048 31.4848 32.1134L35.272 35.2897C35.8036 35.7359 35.874 36.529 35.4278 37.0607C35.1802 37.3548 34.8232 37.5082 34.465 37.5082Z" fill="white"/>
<path d="M47.7069 37.5082C47.3524 37.5082 47.0005 37.3587 46.7516 37.0683C46.3004 36.5404 46.362 35.7473 46.8899 35.296L50.6066 32.1147C50.8555 31.9036 50.8919 31.6396 50.8919 31.5014C50.8919 31.3631 50.8555 31.0991 50.6091 30.8905L46.8886 27.7067C46.3607 27.2554 46.2991 26.4623 46.7504 25.9344C47.2016 25.4065 47.9947 25.3449 48.5226 25.7961L52.2394 28.9774C52.9785 29.6059 53.4046 30.526 53.4046 31.5014C53.4046 32.4767 52.9785 33.3968 52.2356 34.0278L48.5239 37.2053C48.2876 37.4089 47.996 37.5082 47.7069 37.5082Z" fill="white"/>
<path d="M38.4873 40.0338C38.354 40.0338 38.2183 40.0124 38.085 39.9671C37.4277 39.7447 37.0745 39.032 37.2957 38.3746L42.2065 23.8231C42.429 23.1657 43.1417 22.8113 43.799 23.0337C44.4564 23.2562 44.8096 23.9689 44.5884 24.6263L39.6776 39.1778C39.5003 39.7032 39.0114 40.0338 38.4873 40.0338Z" fill="white"/>
<path d="M25.879 12.695H17.2954C16.2547 12.695 15.41 11.8503 15.41 10.8096C15.41 9.76885 16.2547 8.92419 17.2954 8.92419H25.879C26.9197 8.92419 27.7644 9.76885 27.7644 10.8096C27.7644 11.8503 26.9197 12.695 25.879 12.695Z" fill="white"/>
</svg>
