<svg width="60" height="60" viewBox="0 0 60 60" fill="none" xmlns="http://www.w3.org/2000/svg">
<path d="M59.9295 4.47925C59.7995 2.09589 57.904 0.200615 55.5206 0.0705373C50.7115 -0.192197 41.3009 0.0633891 32.3023 4.71772C27.715 7.09054 22.8634 11.1135 18.9917 15.755C18.944 15.8122 18.8976 15.8698 18.8502 15.9271L10.0635 16.6058C8.61716 16.7176 7.32892 17.4757 6.529 18.6855L0.534391 27.7526C-0.072289 28.6701 -0.168734 29.8185 0.276227 30.8243C0.721305 31.8302 1.63584 32.5312 2.72275 32.6996L10.1256 33.8462C10.0995 33.9901 10.0732 34.1339 10.0492 34.2778C9.80275 35.752 10.2912 37.2677 11.356 38.3324L21.6675 48.6441C22.5503 49.5268 23.7431 50.0135 24.9654 50.0135C25.2171 50.0135 25.4702 49.9928 25.7222 49.9507C25.8661 49.9267 26.0099 49.9004 26.1538 49.8743L27.3004 57.2773C27.4688 58.3642 28.1698 59.2788 29.1755 59.7238C29.594 59.9089 30.0368 60.0003 30.4777 60.0003C31.0968 60.0002 31.7115 59.82 32.2473 59.4657L41.3144 53.471C42.5243 52.671 43.2823 51.3827 43.3938 49.9365L44.0726 41.1499C44.1299 41.1026 44.1876 41.0562 44.2447 41.0085C48.8864 37.1367 52.9095 32.2851 55.2822 27.6977C59.9367 18.6988 60.1918 9.28804 59.9295 4.47925ZM39.3755 50.5383L30.7023 56.2726L29.5848 49.058C33.2504 47.9802 36.8766 46.254 40.3312 43.9416L39.889 49.6656C39.8615 50.0226 39.6742 50.3408 39.3755 50.5383ZM24.1534 46.1582L13.8417 35.8465C13.5786 35.5833 13.457 35.2135 13.5167 34.8574C13.8232 33.0243 14.2996 31.2792 14.8893 29.6353L30.3613 45.1073C28.3869 45.8146 26.6185 46.2364 25.1425 46.4832C24.7858 46.5425 24.4165 46.4212 24.1534 46.1582ZM10.3343 20.111L16.0582 19.6689C13.7456 23.1234 12.0195 26.7496 10.9417 30.4152L3.72716 29.2978L9.46162 20.6245C9.65919 20.3257 9.97736 20.1385 10.3343 20.111ZM41.9931 38.3086C39.1533 40.6773 36.3967 42.3906 33.8558 43.6303L16.369 26.1435C17.993 22.8266 19.975 20.0646 21.6913 18.007C25.2743 13.7115 29.7306 10.0059 33.9176 7.8403C42.1763 3.56847 50.8776 3.33843 55.3293 3.58077C55.9185 3.61288 56.3871 4.08151 56.4192 4.67085C56.6619 9.12257 56.4314 17.8237 52.1596 26.0825C49.9941 30.2694 46.2885 34.7256 41.9931 38.3086Z" fill="white"/>
<path d="M41.1001 27.6847C43.3504 27.6845 45.6015 26.8279 47.3147 25.1147C48.9748 23.4547 49.8888 21.2476 49.8888 18.9001C49.8888 16.5526 48.9746 14.3455 47.3147 12.6855C43.8879 9.25863 38.3121 9.25887 34.8855 12.6855C33.2255 14.3455 32.3113 16.5526 32.3113 18.9001C32.3113 21.2476 33.2256 23.4547 34.8855 25.1147C36.5991 26.8282 38.8491 27.685 41.1001 27.6847ZM37.3712 15.1713C38.3992 14.1432 39.7495 13.6293 41.0999 13.6293C42.4503 13.6293 43.8007 14.1432 44.8287 15.1713C45.8246 16.1673 46.3731 17.4915 46.3731 18.9C46.3731 20.3085 45.8246 21.6328 44.8287 22.6288C42.7727 24.6848 39.4271 24.6847 37.3711 22.6288C36.3751 21.6328 35.8266 20.3086 35.8266 18.9001C35.8266 17.4916 36.3752 16.1673 37.3712 15.1713Z" fill="white"/>
<path d="M1.79309 49.4459C2.24297 49.4459 2.69285 49.2743 3.03598 48.9309L8.775 43.1919C9.46148 42.5054 9.46148 41.3925 8.775 40.706C8.08863 40.0195 6.97559 40.0195 6.2891 40.706L0.550195 46.445C-0.136289 47.1315 -0.136289 48.2445 0.550195 48.9309C0.89332 49.2742 1.3432 49.4459 1.79309 49.4459Z" fill="white"/>
<path d="M14.0345 45.9655C13.3481 45.279 12.2351 45.279 11.5486 45.9655L0.51492 56.9993C-0.171564 57.6858 -0.171564 58.7987 0.51492 59.4852C0.858163 59.8284 1.30793 60 1.75781 60C2.20769 60 2.65758 59.8284 3.0007 59.4851L14.0344 48.4514C14.721 47.7649 14.721 46.652 14.0345 45.9655Z" fill="white"/>
<path d="M16.8081 51.225L11.0691 56.964C10.3826 57.6505 10.3826 58.7634 11.0691 59.4499C11.4123 59.7932 11.8622 59.9649 12.312 59.9649C12.7617 59.9649 13.2117 59.7933 13.5548 59.4499L19.2939 53.7109C19.9804 53.0244 19.9804 51.9115 19.2939 51.225C18.6075 50.5385 17.4945 50.5385 16.8081 51.225Z" fill="white"/>
</svg>
