<svg width="20" height="21" viewBox="0 0 20 21" fill="none" xmlns="http://www.w3.org/2000/svg">
<path d="M10 0.953369C4.5 0.953369 0 5.45337 0 10.9534C0 16.4534 4.5 20.9534 10 20.9534C15.5 20.9534 20 16.4534 20 10.9534C20 5.45337 15.5 0.953369 10 0.953369ZM14.3 8.55337L9.7 14.5534C9.5 14.7534 9.2 14.9534 8.9 14.9534C8.6 14.9534 8.3 14.8534 8.1 14.5534L5.7 11.4534C5.4 11.0534 5.4 10.3534 5.9 10.0534C6.4 9.75337 7 9.75337 7.3 10.2534L8.9 12.3534L12.7 7.35337C13 6.95337 13.7 6.85337 14.1 7.15337C14.6 7.45337 14.6 8.05337 14.3 8.55337Z" fill="#F4901A"/>
</svg>
