<svg width="30" height="30" viewBox="0 0 30 30" fill="none" xmlns="http://www.w3.org/2000/svg">
<rect x="0.5" y="0.5" width="29" height="29" rx="14.5" stroke="#F4901A"/>
<path d="M22.601 22.6001V16.8866C22.601 14.0786 21.9965 11.9336 18.7205 11.9336C17.141 11.9336 16.088 12.7916 15.659 13.6106H15.62V12.1871H12.5195V22.6001H15.7565V17.4326C15.7565 16.0676 16.01 14.7611 17.687 14.7611C19.3445 14.7611 19.364 16.3016 19.364 17.5106V22.5806H22.601V22.6001Z" fill="white"/>
<path d="M7.25391 12.1875H10.4909V22.6005H7.25391V12.1875Z" fill="white"/>
<path d="M8.87199 7C7.8385 7 7 7.8385 7 8.87199C7 9.90549 7.8385 10.7635 8.87199 10.7635C9.90549 10.7635 10.744 9.90549 10.744 8.87199C10.744 7.8385 9.90549 7 8.87199 7Z" fill="white"/>
</svg>
