<svg width="30" height="30" viewBox="0 0 30 30" fill="none" xmlns="http://www.w3.org/2000/svg">
<rect x="0.5" y="0.5" width="29" height="29" rx="14.5" stroke="#F4901A"/>
<path d="M23.1538 9.5538C22.5531 9.81731 21.913 9.99197 21.2457 10.0768C21.9322 9.66687 22.4562 9.02274 22.7025 8.24635C22.0625 8.62798 21.3557 8.89755 20.6025 9.04798C19.9948 8.40082 19.1285 8 18.1835 8C16.35 8 14.874 9.48817 14.874 11.3125C14.874 11.575 14.8962 11.8275 14.9507 12.0677C12.1975 11.9335 9.7613 10.6139 8.12471 8.60375C7.83899 9.09947 7.67139 9.66688 7.67139 10.2777C7.67139 11.4246 8.26202 12.4413 9.1424 13.0299C8.61034 13.0198 8.08837 12.8653 7.64615 12.622C7.64615 12.6321 7.64615 12.6452 7.64615 12.6584C7.64615 14.2677 8.79409 15.6044 10.2994 15.9124C10.0299 15.9861 9.73606 16.0214 9.43115 16.0214C9.21913 16.0214 9.0051 16.0093 8.80418 15.9649C9.23327 17.2763 10.4509 18.2405 11.8987 18.2718C10.7719 19.1532 9.3413 19.6843 7.79255 19.6843C7.52096 19.6843 7.26048 19.6722 7 19.6388C8.46697 20.5849 10.2055 21.125 12.0804 21.125C18.1744 21.125 21.5062 16.0769 21.5062 11.7013C21.5062 11.5549 21.5011 11.4135 21.494 11.2732C22.1513 10.8067 22.7036 10.2242 23.1538 9.5538Z" fill="white"/>
</svg>
