<svg width="30" height="30" viewBox="0 0 30 30" fill="none" xmlns="http://www.w3.org/2000/svg">
<path d="M22.6703 11.7212C22.486 11.0482 21.9455 10.5176 21.2602 10.3364C20.0081 10 14.9998 10 14.9998 10C14.9998 10 9.9917 10 8.73965 10.3236C8.06748 10.5047 7.51387 11.0483 7.32949 11.7212C7 12.9506 7 15.5 7 15.5C7 15.5 7 18.0623 7.32949 19.2788C7.51406 19.9517 8.0543 20.4823 8.73975 20.6635C10.0049 21 15 21 15 21C15 21 20.0081 21 21.2602 20.6764C21.9456 20.4952 22.486 19.9647 22.6705 19.2917C22.9999 18.0623 22.9999 15.5129 22.9999 15.5129C22.9999 15.5129 23.0131 12.9506 22.6703 11.7212ZM13.4053 17.8553V13.1447L17.5699 15.5L13.4053 17.8553Z" fill="white"/>
<rect x="0.5" y="0.5" width="29" height="29" rx="14.5" stroke="#F4901A"/>
</svg>
